# Blender v2.93.3 OBJ File: ''
# www.blender.org
mtllib untitled.mtl
o Pyrimid_Cube
v 0.000000 1.000000 0.000000
v 1.000000 -1.000000 -1.000000
v 1.000000 -1.000000 1.000000
v -1.000000 -1.000000 -1.000000
v -1.000000 -1.000000 1.000000
vt 0.625000 0.625000
vt 0.500000 0.875000
vt 0.375000 0.625000
vt 0.125000 0.500000
vt 0.375000 0.375000
vt 0.625000 0.375000
vt 0.875000 0.500000
vt 0.500000 0.125000
vn 0.0000 0.4472 0.8944
vn -0.8944 0.4472 0.0000
vn 0.0000 -1.0000 0.0000
vn 0.8944 0.4472 0.0000
vn 0.0000 0.4472 -0.8944
usemtl Material
s off
f 3/1/1 1/2/1 5/3/1
f 5/3/2 1/4/2 4/5/2
f 4/5/3 2/6/3 3/1/3 5/3/3
f 2/6/4 1/7/4 3/1/4
f 4/5/5 1/8/5 2/6/5
o Sunglasses_Cube.002
v 0.652236 0.086040 -0.921689
v 0.798992 -0.228681 -0.400806
v 0.652236 0.086040 0.921689
v 0.798992 -0.228681 0.400806
v 0.475595 0.029833 -1.000000
v 0.644643 -0.332691 -0.400000
v 0.475595 0.029833 1.000000
v 0.644642 -0.332691 0.400000
v 0.671951 0.043759 0.000000
v 0.517857 -0.060798 -0.000000
v 0.653519 0.112800 -1.000000
v 0.822566 -0.249723 -0.400000
v 0.653519 0.112800 1.000000
v 0.822566 -0.249723 0.400000
v 0.695781 0.022169 0.000000
vt 0.625000 0.500000
vt 0.875000 0.500000
vt 0.875000 0.750000
vt 0.625000 0.750000
vt 0.375000 0.750000
vt 0.625000 1.000000
vt 0.375000 1.000000
vt 0.375000 0.750000
vt 0.375000 1.000000
vt 0.375000 1.000000
vt 0.375000 0.750000
vt 0.375000 0.250000
vt 0.625000 0.250000
vt 0.375000 0.500000
vt 0.609960 0.520237
vt 0.609960 0.744803
vt 0.388919 0.746891
vt 0.488264 0.693368
vt 0.388919 0.739190
vn -0.4226 0.9063 -0.0000
vn 0.3516 -0.7541 0.5547
vn 0.3381 -0.7250 0.6000
vn 0.3381 -0.7250 -0.6000
vn 0.3516 -0.7541 -0.5547
vn 0.9063 0.4226 0.0000
vn -0.9063 -0.4226 -0.0000
vn 0.6384 0.7251 0.2582
vn 0.6384 0.7251 -0.2582
vn 0.9989 -0.0479 0.0000
vn 0.6447 0.7116 0.2793
vn 0.6447 0.7116 -0.2793
usemtl Material.002
s off
f 16/9/6 10/10/6 12/11/6 18/12/6
f 19/13/7 18/12/7 12/14/7 13/15/7
f 20/16/8 15/17/8 11/18/8 17/19/8
f 19/13/9 13/15/9 15/17/9 20/16/9
f 11/20/10 10/21/10 16/9/10 17/22/10
f 6/23/11 8/24/11 9/25/11 14/26/11 7/27/11
f 15/17/12 13/15/12 12/11/12 10/21/12 11/18/12
f 6/23/13 7/27/13 17/19/13 16/9/13
f 9/25/14 8/24/14 18/12/14 19/13/14
f 8/24/15 6/23/15 16/9/15 18/12/15
f 14/26/16 9/25/16 19/13/16 20/16/16
f 7/27/17 14/26/17 20/16/17 17/19/17
